<?xml version="1.0" encoding="UTF-8"?>
<svg id="Layer_1" data-name="Layer 1" xmlns="http://www.w3.org/2000/svg" viewBox="0 0 3295.29 924.62">
  <defs>
    <style>
      .cls-1 {
        fill: #fff;
      }
    </style>
  </defs>
  <g>
    <path class="cls-1" d="M460.71,589.11c0-58.24,22.98-82.82,95.65-90.84l132.53-14.43c12.83-1.61,17.1-8.55,17.1-21.37,0-34.2-10.15-43.29-55.04-43.29h-155.5c-6.95,0-10.69-3.73-10.69-10.68v-26.18c0-6.95,3.74-10.69,10.69-10.69h156.57c76.95,0,104.2,27.25,104.2,88.17v201.45c0,6.95-3.74,10.69-10.69,10.69h-28.85c-6.95,0-10.69-3.74-10.69-10.69v-35.27c-13.9,31.52-34.2,45.96-92.98,45.96h-40.08c-71.6,0-112.22-25.65-112.22-82.83ZM633.31,625.46c55.57,0,72.67-19.24,72.67-69.48v-29.39l-141.61,14.96c-42.75,4.27-52.9,14.43-52.9,43.28,0,26.18,18.7,40.62,61.45,40.62h60.38Z"/>
    <path class="cls-1" d="M997.78,371.63c6.94,0,10.68,3.74,10.68,10.69v26.18c0,6.95-3.74,10.68-10.68,10.68h-72.68c-42.22,0-61.45,9.62-61.45,66.8v225.84c0,6.95-3.74,10.69-10.68,10.69h-28.86c-6.95,0-10.69-3.74-10.69-10.69v-329.51c0-6.95,3.74-10.69,10.69-10.69h28.86c6.94,0,10.68,3.74,10.68,10.69v28.32c11.76-26.18,36.34-39.01,84.97-39.01h49.16Z"/>
    <path class="cls-1" d="M1026.11,553.32v-64.66c0-77.48,21.37-117.03,110.61-117.03h88.7c89.24,0,110.61,39.55,110.61,117.03v64.66c0,79.62-21.37,118.63-110.61,118.63h-88.7c-89.24,0-110.61-39.01-110.61-118.63ZM1224.36,624.38c49.69,0,61.45-11.75,61.45-66.79v-72.67c0-53.97-11.76-65.73-61.45-65.73h-86.57c-49.69,0-61.45,11.76-61.45,65.73v72.67c0,55.04,11.76,66.79,61.45,66.79h86.57Z"/>
    <path class="cls-1" d="M1699.98,490.26v64.66c0,77.48-21.37,117.03-110.61,117.03h-63.59c-48.63,0-73.21-12.83-84.97-39.01v78.89c0,6.95-3.73,10.69-10.68,10.69h-28.86c-6.95,0-10.69-3.74-10.69-10.69v-434.78c0-6.95,3.74-10.68,10.69-10.68h28.86c6.95,0,10.68,3.73,10.68,10.68v133.59c11.76-26.18,36.34-39.01,84.97-39.01h63.59c89.24,0,110.61,39.01,110.61,118.63ZM1649.75,485.99c0-55.04-11.76-66.8-60.92-66.8h-86.57c-42.22,0-61.45,9.62-61.45,66.8v72.67c0,56.11,19.24,65.72,61.45,65.72h86.57c49.16,0,60.92-11.75,60.92-65.72v-72.67Z"/>
    <path class="cls-1" d="M1463.67,791.53v-26.18c0-6.95,3.74-10.69,10.69-10.69h470.38c49.7,0,62.53-43.7,62.53-91.79v-43.28c-10.69,28.32-33.67,41.68-84.43,41.68h-57.72c-89.23,0-110.61-39.54-110.61-118.63v-160.31c0-6.95,3.74-10.69,10.69-10.69h28.86c6.95,0,10.68,3.74,10.68,10.69v164.58c0,55.04,11.76,66.8,60.92,66.8h80.69c41.68,0,60.92-9.62,60.92-66.8v-164.05c0-6.95,3.73-10.68,10.68-10.68h28.86c6.95,0,10.68,3.73,10.68,10.68v275.73c0,73.21-23.51,143.63-112.75,143.63h-470.38c-6.95,0-10.69-3.73-10.69-10.68Z"/>
    <path class="cls-1" d="M2139.82,558.66v-140.54h-33.13c-6.95,0-10.69-3.73-10.69-10.68v-25.12c0-6.95,3.74-10.69,10.69-10.69,43.81-.53,48.09,11.09,48.09-83.8,0-7.49,3.74-11.22,10.69-11.22h13.9c6.95,0,10.68,3.73,10.68,10.68v84.34h122.91c6.95,0,10.68,3.74,10.68,10.69v25.12c0,6.95-3.73,10.68-10.68,10.68h-122.91v144.81c0,48.09,14.96,62.53,68.4,62.53h54.51c6.95,0,10.68,3.73,10.68,10.68v25.12c0,6.95-3.73,10.69-10.68,10.69h-54.51c-96.72,0-118.62-38.47-118.62-113.29Z"/>
    <path class="cls-1" d="M2351.98,553.32v-64.66c0-77.48,21.37-117.03,110.61-117.03h75.35c89.23,0,110.61,39.55,110.61,117.03v48.09c0,6.95-3.74,10.69-10.69,10.69h-235.65v10.15c0,55.04,11.76,66.79,61.45,66.79h150.16c6.95,0,10.69,3.74,10.69,10.69v26.18c0,6.95-3.74,10.69-10.69,10.69h-151.22c-89.24,0-110.61-39.01-110.61-118.63ZM2598.33,502.02v-17.1c0-53.97-11.76-65.73-61.45-65.73h-73.21c-49.69,0-61.45,11.76-61.45,65.73v17.1h196.11Z"/>
    <path class="cls-1" d="M2676.9,661.26v-28.32c0-5.34,1.07-8.55,5.34-12.83l203.6-201.99h-198.25c-6.95,0-10.69-3.73-10.69-10.68v-25.12c0-6.95,3.74-10.69,10.69-10.69h254.89c6.95,0,10.69,3.74,10.69,10.69v28.32c0,5.34-1.07,8.55-5.35,12.83l-203.06,201.99h145.84c6.95,0,10.69,3.73,10.69,10.68v25.12c0,6.95-3.74,10.69-10.69,10.69h-203.01c-6.95,0-10.69-3.74-10.69-10.69Z"/>
    <path class="cls-1" d="M265.81,588.21v-304.29h-133.09s0,0,0,0v-41.34c0-15.04,8.09-23.15,23.14-23.15,94.87-1.15,141.2-10.42,142.36-142.3,0-16.21,8.09-24.29,23.14-24.29h52.22v166.59h2708.78v64.49H373.56v313.54c0,104.13,33.4,135.38,149.09,135.38h269.3v82.56s0,.02-.02.02h-269.28c-209.41,0-256.85-65.22-256.85-227.2Z"/>
    <path class="cls-1" d="M1475.32,759.19c-.53,0-.95.43-.95.95v41.11c0,.53.43.95.95.95"/>
  </g>
  <path class="cls-1" d="M3123.93,321.35c-39.72,0-72.04-32.32-72.04-72.04s32.32-72.04,72.04-72.04,72.04,32.32,72.04,72.04-32.32,72.04-72.04,72.04ZM3123.93,220.27c-16.01,0-29.04,13.03-29.04,29.04s13.03,29.04,29.04,29.04,29.04-13.03,29.04-29.04-13.03-29.04-29.04-29.04Z"/>
  <path class="cls-1" d="M3138.27,301.34h-35.8v301.53c0,12.48-10.11,22.59-22.59,22.59h-108.79l1.42,46.49h143.25c18.33,0,33.2-14.86,33.2-33.2v-326.72c0-5.9-4.79-10.69-10.69-10.69Z"/>
  <polygon class="cls-1" points="1170.87 871.98 1110.5 774.23 1046.11 871.54 985.89 772.07 968.91 800.28 876.31 800.28 876.31 769.28 951.39 769.28 985.82 712.09 1047.27 813.61 1111.4 716.69 1170.99 813.17 1230.81 717.14 1291.84 813.71 1311.54 782.98 1375.27 782.98 1375.27 813.98 1328.49 813.98 1291.65 871.44 1231 775.47 1170.87 871.98"/>
  <path class="cls-1" d="M837.46,849.25c-39.72,0-72.04-32.32-72.04-72.04s32.32-72.04,72.04-72.04,72.04,32.32,72.04,72.04-32.32,72.04-72.04,72.04ZM837.46,748.17c-16.01,0-29.04,13.03-29.04,29.04s13.03,29.04,29.04,29.04,29.04-13.03,29.04-29.04-13.03-29.04-29.04-29.04Z"/>
  <path class="cls-1" d="M1413.13,849.25c-39.72,0-72.04-32.32-72.04-72.04s32.32-72.04,72.04-72.04,72.04,32.32,72.04,72.04-32.32,72.04-72.04,72.04ZM1413.13,748.17c-16.01,0-29.04,13.03-29.04,29.04s13.03,29.04,29.04,29.04,29.04-13.03,29.04-29.04-13.03-29.04-29.04-29.04Z"/>
  <path class="cls-1" d="M95.34,321.35c-39.72,0-72.04-32.32-72.04-72.04s32.32-72.04,72.04-72.04,72.04,32.32,72.04,72.04-32.32,72.04-72.04,72.04ZM95.34,220.27c-16.01,0-29.04,13.03-29.04,29.04s13.03,29.04,29.04,29.04,29.04-13.03,29.04-29.04-13.03-29.04-29.04-29.04Z"/>
  <path class="cls-1" d="M2845.43,596.97v96.57h172.77v-96.57h-172.77ZM2959.24,677.3h-54.84v-64.1h54.84v64.1Z"/>
</svg>